<svg xmlns="http://www.w3.org/2000/svg" width="59" height="60" viewBox="0 0 59 60">
    <g>
        <path d="M58.5 47.28L36.077 24.333l6.04-6.063 2.081 2.088 4.681-4.698L33.276 0l-4.681 4.698 2.08 2.088-17.164 17.226-2.08-2.088-4.681 4.698 15.603 15.66 4.682-4.698-2.08-2.088 5.92-5.943L53.3 52.5l5.201-5.22zM31.715 4.698l1.56-1.566L45.76 15.66l-1.56 1.566-.52-.522L32.235 5.22l-.52-.522zm-7.801 32.886l-1.56 1.566L9.87 26.622l1.56-1.566.52.522 11.443 11.484.52.522zm-8.842-12.006L32.236 8.352l8.321 8.352-6.025 6.048-2.6 2.61-8.538 8.568-8.322-8.352zm19.444.32l20.878 21.367-2.08 2.088-20.878-21.366 2.08-2.088zM25.74 48.75H2.925v4.5H0V60h29.25v-6.75h-3.51v-4.5zM5.119 51h18.427v2.25H5.12V51zm21.937 4.5v2.25H2.194V55.5H27.056z"/>
    </g>
</svg>
