<svg xmlns="http://www.w3.org/2000/svg" width="50" height="50" viewBox="0 0 50 50">
    <g fill="#1A47B0">
        <path d="M25 0C11.215 0 0 11.215 0 25s11.215 25 25 25 25-11.215 25-25S38.785 0 25 0zm0 48.333C12.134 48.333 1.667 37.866 1.667 25 1.667 12.134 12.134 1.667 25 1.667c12.866 0 23.333 10.467 23.333 23.333 0 12.866-10.467 23.333-23.333 23.333z"/>
        <path d="M25.833 21.684v-8.452c0-.46-.373-.833-.833-.833-.46 0-.833.373-.833.834v8.451c-1.166.303-2.079 1.216-2.382 2.382h-5.952c-.46 0-.833.372-.833.833 0 .461.373.834.833.834h5.952c.372 1.433 1.667 2.5 3.215 2.5 1.838 0 3.333-1.495 3.333-3.334 0-1.549-1.066-2.842-2.5-3.215zM25 26.566c-.92 0-1.667-.748-1.667-1.667s.748-1.666 1.667-1.666c.92 0 1.667.747 1.667 1.666 0 .92-.748 1.667-1.667 1.667zM25 8.232c.46 0 .833-.372.833-.833v-.833c0-.461-.373-.833-.833-.833-.46 0-.833.372-.833.833v.833c0 .461.373.833.833.833zM25 41.566c-.46 0-.833.372-.833.833v.834c0 .46.373.833.833.833.46 0 .833-.373.833-.834V42.4c0-.46-.373-.833-.833-.833zM43.333 24.066H42.5c-.46 0-.833.372-.833.833 0 .461.373.834.833.834h.833c.46 0 .834-.373.834-.834 0-.46-.374-.833-.834-.833zM7.5 24.066h-.833c-.46 0-.834.372-.834.833 0 .461.374.834.834.834H7.5c.46 0 .833-.373.833-.834 0-.46-.373-.833-.833-.833zM37.374 11.346l-.589.589c-.326.326-.326.852 0 1.178.163.163.376.245.59.245.212 0 .426-.082.588-.245l.59-.589c.325-.326.325-.852 0-1.178-.326-.326-.853-.325-1.179 0zM12.037 36.684l-.59.59c-.325.325-.325.852 0 1.178.163.162.376.244.59.244.213 0 .426-.082.589-.244l.589-.59c.326-.325.326-.852 0-1.178-.326-.326-.853-.325-1.178 0zM37.963 36.684c-.325-.326-.852-.326-1.178 0-.326.326-.326.853 0 1.178l.59.59c.162.162.375.244.588.244.214 0 .427-.082.59-.244.325-.326.325-.853 0-1.179l-.59-.589zM12.626 11.346c-.326-.326-.853-.326-1.178 0-.326.326-.326.852 0 1.178l.589.59c.162.162.375.243.589.243.213 0 .427-.081.589-.244.326-.325.326-.852 0-1.178l-.59-.59z"/>
    </g>
</svg>
