<svg xmlns="http://www.w3.org/2000/svg" width="40" height="50" viewBox="0 0 40 50">
    <g fill="#EC1C24">
        <path d="M32.5 20.833H11.667c-.46 0-.834.373-.834.834 0 .46.374.833.834.833H32.5c.46 0 .833-.372.833-.833 0-.461-.373-.834-.833-.834zM11.667 15.833H20c.46 0 .833-.372.833-.833 0-.46-.373-.833-.833-.833h-8.333c-.46 0-.834.372-.834.833 0 .46.374.833.834.833zM32.5 27.5H11.667c-.46 0-.834.372-.834.833 0 .461.374.834.834.834H32.5c.46 0 .833-.373.833-.834 0-.46-.373-.833-.833-.833zM32.5 34.167H11.667c-.46 0-.834.372-.834.833 0 .46.374.833.834.833H32.5c.46 0 .833-.372.833-.833 0-.46-.373-.833-.833-.833zM32.5 40.833H11.667c-.46 0-.834.373-.834.834 0 .46.374.833.834.833H32.5c.46 0 .833-.373.833-.833 0-.461-.373-.834-.833-.834z"/>
        <path d="M35.833 12.155V0H0v45.833h4.167V50H40V16.322l-4.167-4.167zm-7.5-5.143l7.5 7.5 1.322 1.321h-8.822V7.012zM1.667 44.167v-42.5h32.5v8.821l-6.322-6.321H4.167v40h-2.5zm4.166 4.166v-42.5h20.834V17.5h11.666v30.833h-32.5z"/>
    </g>
</svg>
