<svg xmlns="http://www.w3.org/2000/svg" xmlns:xlink="http://www.w3.org/1999/xlink" width="40" height="40" viewBox="0 0 40 40">
    <defs>
        <path id="prefix__a" d="M0 0.032L13.661 0.032 13.661 13.918 0 13.918z"/>
        <path id="prefix__c" d="M0.188 0.081L6.959 0.081 6.959 6.852 0.188 6.852z"/>
    </defs>
    <g fill="none" fill-rule="evenodd">
        <circle cx="20" cy="20" r="20" fill="#EC1C24"/>
        <g transform="translate(9 12.192)">
            <mask id="prefix__b" fill="#fff">
                <use xlink:href="#prefix__a"/>
            </mask>
            <path fill="#F7F7F5" d="M9.645 3.614l2.003-2.046S9.233-.604 5.278.218C1.608.982.438 3.54.105 5.565c-.318 1.937.047 4.51 1.608 6.198 1.135 1.227 2.521 2.155 5.464 2.155 3.08 0 6.686-2.541 6.475-8.279h-6.77v2.7h3.86s-.523 2.557-3.27 2.721c-1.752.105-4.092-.464-4.556-3.27-.344-2.08.477-4.482 3.008-4.862 2.531-.38 3.72.686 3.72.686" mask="url(#prefix__b)"/>
        </g>
        <g>
            <g transform="translate(9 12) translate(15.04 3.335)">
                <mask id="prefix__d" fill="#fff">
                    <use xlink:href="#prefix__c"/>
                </mask>
                <path fill="#F7F7F5" d="M6.959 2.565L4.475 2.565 4.475 0.081 2.672 0.081 2.672 2.565 0.188 2.565 0.188 4.369 2.672 4.369 2.672 6.852 4.475 6.852 4.475 4.369 6.959 4.369z" mask="url(#prefix__d)"/>
            </g>
        </g>
    </g>
</svg>
