<svg xmlns="http://www.w3.org/2000/svg" width="40" height="40" viewBox="0 0 40 40">
    <g fill="none" fill-rule="evenodd">
        <circle cx="20" cy="20" r="20" fill="#EC1C24"/>
        <g fill="#F7F7F5">
            <path d="M6.98 2.742c-2.46 0-4.461 2.002-4.461 4.462v8.636c0 2.46 2.001 4.462 4.462 4.462h8.636c2.46 0 4.461-2.002 4.461-4.462V7.204c0-2.46-2.001-4.462-4.461-4.462H6.98zm8.637 20.079H6.98C3.13 22.82 0 19.689 0 15.84V7.204C0 3.354 3.132.224 6.98.224h8.637c3.849 0 6.98 3.13 6.98 6.98v8.636c0 3.849-3.131 6.98-6.98 6.98z" transform="translate(9 8)"/>
            <path d="M11.299 8.013c-1.935 0-3.509 1.574-3.509 3.509 0 1.934 1.574 3.508 3.509 3.508 1.934 0 3.508-1.574 3.508-3.508 0-1.935-1.574-3.509-3.508-3.509m0 9.284c-3.185 0-5.776-2.59-5.776-5.775 0-3.185 2.591-5.776 5.776-5.776 3.184 0 5.775 2.591 5.775 5.776 0 3.184-2.591 5.775-5.775 5.775M18.342 5.41c0 .54-.437.977-.976.977-.54 0-.977-.437-.977-.976 0-.54.437-.977.977-.977.539 0 .976.438.976.977" transform="translate(9 8)"/>
        </g>
    </g>
</svg>
