<svg xmlns="http://www.w3.org/2000/svg" width="40" height="40" viewBox="0 0 40 40">
    <g fill="none" fill-rule="evenodd">
        <circle cx="20" cy="20" r="20" fill="#EC1C24"/>
        <path fill="#F3F7F7" d="M27.4 13.268s-1.097-1.329-3.016-1.266c-2.27.075-4.38 1.465-4.137 5.026 0 0-3.42 1.043-8.745-4.02 0 0-1.713 2.792 1.315 5.423 0 0-.85.236-1.985-.397 0 0-.609 2.358 3.288 4.145 0 0-1.315.372-1.91 0 0 0 .347 2.507 3.847 3.103 0 0-1.8 1.787-6.057 1.737 0 0 8.852 4.53 14.99-1.29 4.383-4.158 3.775-9.706 3.775-9.706s1.291-.397 2.06-1.8c0 0-1.464.46-2.308.385 0 0 1.613-1.006 1.738-2.197 0 0-1.378.981-2.855.857"/>
    </g>
</svg>
